# xmcd
#
# Track frame offsets:
# 150
# 15879
# 31635
# 45737
# 62683
# 78813
# 94988
# 111636
# 127291
# 141038
# 153656
# 170942
# 187607
# 201759
# 215827
# 227448
#
# Disc length: 3280 seconds
#
#
# Revision: 0
# Processed by: cddbd v1.5.2PL0 Copyright (c) Steve Scherf et al.
# Submitted via: FreeRIP 2.942 
#
DISCID=d90cce10
DTITLE=dany and diego - a paixão me pegou
DYEAR=1900
DGENRE=Country
TTITLE0=a paixã me pegou
TTITLE1=aqui só tem filé
TTITLE2=nóis dança conforme a dança
TTITLE3=é por causa dela
TTITLE4=experimenta
TTITLE5=feito espora
TTITLE6=nem que a jiripoca pia
TTITLE7=hoje vou chutá o pau da barraca
TTITLE8=na balada
TTITLE9=não pára,sanfoneiro
TTITLE10=nóis enrola,mas num casa
TTITLE11=se você me ama
TTITLE12=tá derramando mulher
TTITLE13=vespeira
TTITLE14=onde tem sanfona tem arrastá-pé
TTITLE15=deus,salve a verdade
EXTD=
EXTT0=
EXTT1=
EXTT2=
EXTT3=
EXTT4=
EXTT5=
EXTT6=
EXTT7=
EXTT8=
EXTT9=
EXTT10=
EXTT11=
EXTT12=
EXTT13=
EXTT14=
EXTT15=
PLAYORDER=
